<svg width="598" height="598" viewBox="0 0 598 598" fill="none" xmlns="http://www.w3.org/2000/svg">
<line y1="53.684" x2="598" y2="53.684" stroke="#5E5E67" stroke-opacity="0.5" stroke-width="1.35909"/>
<line y1="108.048" x2="598" y2="108.048" stroke="#5E5E67" stroke-opacity="0.5" stroke-width="1.35909"/>
<line y1="162.411" x2="598" y2="162.411" stroke="#5E5E67" stroke-opacity="0.5" stroke-width="1.35909"/>
<line y1="216.775" x2="598" y2="216.775" stroke="#5E5E67" stroke-opacity="0.5" stroke-width="1.35909"/>
<line y1="271.139" x2="598" y2="271.139" stroke="#5E5E67" stroke-opacity="0.5" stroke-width="1.35909"/>
<line y1="325.502" x2="598" y2="325.502" stroke="#5E5E67" stroke-opacity="0.5" stroke-width="1.35909"/>
<line y1="379.866" x2="598" y2="379.866" stroke="#5E5E67" stroke-opacity="0.5" stroke-width="1.35909"/>
<line y1="434.23" x2="598" y2="434.23" stroke="#5E5E67" stroke-opacity="0.5" stroke-width="1.35909"/>
<line y1="488.593" x2="598" y2="488.593" stroke="#5E5E67" stroke-opacity="0.5" stroke-width="1.35909"/>
<line y1="542.957" x2="598" y2="542.957" stroke="#5E5E67" stroke-opacity="0.5" stroke-width="1.35909"/>
<line x1="544.316" y1="2.30205e-08" x2="544.316" y2="598" stroke="#5E5E67" stroke-opacity="0.5" stroke-width="1.35909"/>
<line x1="489.952" y1="2.30205e-08" x2="489.952" y2="598" stroke="#5E5E67" stroke-opacity="0.5" stroke-width="1.35909"/>
<line x1="435.589" y1="2.30205e-08" x2="435.589" y2="598" stroke="#5E5E67" stroke-opacity="0.5" stroke-width="1.35909"/>
<line x1="381.225" y1="2.30205e-08" x2="381.225" y2="598" stroke="#5E5E67" stroke-opacity="0.5" stroke-width="1.35909"/>
<line x1="326.861" y1="2.30205e-08" x2="326.861" y2="598" stroke="#5E5E67" stroke-opacity="0.5" stroke-width="1.35909"/>
<line x1="272.498" y1="2.30205e-08" x2="272.498" y2="598" stroke="#5E5E67" stroke-opacity="0.5" stroke-width="1.35909"/>
<line x1="218.134" y1="2.30205e-08" x2="218.134" y2="598" stroke="#5E5E67" stroke-opacity="0.5" stroke-width="1.35909"/>
<line x1="163.77" y1="2.30205e-08" x2="163.77" y2="598" stroke="#5E5E67" stroke-opacity="0.5" stroke-width="1.35909"/>
<line x1="109.407" y1="2.30205e-08" x2="109.407" y2="598" stroke="#5E5E67" stroke-opacity="0.5" stroke-width="1.35909"/>
<line x1="55.0433" y1="2.30205e-08" x2="55.0433" y2="598" stroke="#5E5E67" stroke-opacity="0.5" stroke-width="1.35909"/>
</svg>
