<?xml version="1.0" encoding="UTF-8"?>
<svg xmlns="http://www.w3.org/2000/svg" width="1024" height="1024" viewBox="0 0 1024 1024">
  <rect width="100%" height="100%" fill="#ffffff"/>
  <path d="M 594 537 L 580 537 L 578 539 L 578 540 L 573 545 L 569 551 L 564 556 L 564 557 L 534 592 L 530 598 L 525 603 L 521 609 L 486 650 L 482 656 L 474 664 L 474 665 L 468 671 L 468 672 L 463 677 L 463 678 L 457 684 L 457 685 L 451 691 L 451 692 L 446 697 L 446 698 L 424 723 L 423 725 L 424 726 L 503 726 L 504 725 L 511 726 L 515 723 L 515 722 L 530 705 L 534 699 L 540 693 L 540 692 L 550 681 L 554 675 L 560 669 L 564 663 L 594 628 Z M 473 419 L 473 483 L 636 483 L 638 485 L 638 707 L 656 702 L 670 694 L 687 678 L 693 670 L 701 654 L 705 639 L 706 460 L 703 447 L 698 438 L 691 430 L 684 425 L 668 419 L 602 418 Z M 631 297 L 400 297 L 385 301 L 374 307 L 357 322 L 340 351 L 336 370 L 336 557 L 339 571 L 344 581 L 352 590 L 362 596 L 379 601 L 473 601 L 526 537 L 412 537 L 407 535 L 407 382 L 411 372 L 418 365 L 431 361 L 631 361 Z" fill="#000000" fill-rule="evenodd"/>
</svg>
