<svg version="1.1" id="Layer_1" xmlns="http://www.w3.org/2000/svg" xmlns:xlink="http://www.w3.org/1999/xlink" x="0px" y="0px"
	 width="100%" viewBox="0 0 1024 1024" enable-background="new 0 0 1024 1024" xml:space="preserve">
<path fill="#000000" opacity="1.000000" stroke="none" 
	d="
M456.000000,1025.000000 
	C304.000000,1025.000000 152.500000,1025.000000 1.000000,1025.000000 
	C1.000000,683.666687 1.000000,342.333344 1.000000,1.000000 
	C342.333344,1.000000 683.666687,1.000000 1025.000000,1.000000 
	C1025.000000,342.333344 1025.000000,683.666687 1025.000000,1025.000000 
	C835.500000,1025.000000 646.000000,1025.000000 456.000000,1025.000000 
M367.974426,598.816406 
	C375.286438,600.226135 382.579071,602.719910 389.913940,602.851135 
	C416.559845,603.327515 443.220367,603.077576 469.873657,602.871887 
	C471.978851,602.855652 474.719574,601.623535 476.069611,600.029053 
	C492.638763,580.460022 509.006927,560.720642 525.407837,541.009338 
	C526.060608,540.224854 526.521851,539.280945 527.571533,537.622864 
	C487.475159,537.622864 448.266602,537.622864 409.197266,537.622864 
	C408.978027,536.756470 408.825043,536.434509 408.825195,536.112610 
	C408.847595,485.968903 408.797455,435.824860 408.982666,385.681702 
	C409.020966,375.308380 416.454773,366.484589 426.583038,364.104889 
	C430.263580,363.240173 434.163025,363.001709 437.963196,362.996979 
	C500.768494,362.919037 563.573914,362.924011 626.379333,362.910522 
	C628.463074,362.910065 630.546753,362.910461 632.685852,362.910461 
	C632.685852,340.870850 632.685852,319.612335 632.685852,298.104095 
	C631.126404,298.010132 629.834534,297.864288 628.542603,297.864197 
	C556.241516,297.859192 483.940399,297.825439 411.639557,297.956940 
	C406.364746,297.966522 400.922424,298.559753 395.847076,299.942627 
	C370.446014,306.863708 354.235413,323.835938 344.041473,348.032471 
	C338.808105,355.631104 337.391052,364.310333 337.371643,373.223083 
	C337.240295,433.527710 337.233887,493.832672 337.151978,554.137451 
	C337.135773,566.070129 340.531708,576.838379 348.155548,586.045959 
	C353.189026,592.125000 358.883667,597.471008 367.974426,598.816406 
M552.500000,485.034912 
	C581.248413,485.034912 609.996887,485.034912 639.270020,485.034912 
	C639.270020,559.919189 639.270020,634.130127 639.270020,708.648560 
	C640.969421,708.347595 642.120972,708.217834 643.233826,707.935669 
	C680.748352,698.425537 706.777100,665.287170 707.081238,626.536926 
	C707.248596,605.211731 707.316467,583.885559 707.347168,562.559692 
	C707.393188,530.563843 707.304321,498.567719 707.402405,466.572083 
	C707.441711,453.759186 703.244019,442.746857 694.259644,433.623749 
	C685.403076,424.630341 674.524292,420.076508 661.981018,420.053131 
	C600.488953,419.938568 538.996582,419.962646 477.504333,419.959015 
	C476.411011,419.958954 475.317688,420.222992 474.334961,420.349548 
	C474.334961,441.950012 474.334961,463.212524 474.334961,485.035248 
	C500.264801,485.035248 525.882385,485.035248 552.500000,485.034912 
M490.500000,727.136414 
	C495.828918,727.128296 501.200684,726.695435 506.475067,727.227722 
	C512.099976,727.795288 515.571228,725.536621 519.024353,721.335510 
	C543.549377,691.498230 568.340515,661.879700 592.876709,632.051453 
	C594.586975,629.972351 595.759277,626.775208 595.780823,624.086670 
	C596.003113,596.444031 595.938293,568.798950 595.940308,541.154602 
	C595.940369,540.202454 595.802063,539.250305 595.698059,537.908386 
	C593.302612,537.908386 591.120850,538.205872 589.050964,537.850769 
	C583.579834,536.912048 580.304749,539.453674 577.067505,543.626648 
	C569.012390,554.010254 560.545959,564.080750 552.085144,574.142761 
	C510.420776,623.691589 468.702148,673.194763 427.020752,722.729248 
	C426.052917,723.879395 425.298004,725.208679 423.974426,727.138855 
	C446.562927,727.138855 468.031494,727.138855 490.500000,727.136414 
z"/>
<path fill="#FEFEFE" opacity="1.000000" stroke="none" 
	d="
M344.668823,347.804810 
	C354.235413,323.835938 370.446014,306.863708 395.847076,299.942627 
	C400.922424,298.559753 406.364746,297.966522 411.639557,297.956940 
	C483.940399,297.825439 556.241516,297.859192 628.542603,297.864197 
	C629.834534,297.864288 631.126404,298.010132 632.685852,298.104095 
	C632.685852,319.612335 632.685852,340.870850 632.685852,362.910461 
	C630.546753,362.910461 628.463074,362.910065 626.379333,362.910522 
	C563.573914,362.924011 500.768494,362.919037 437.963196,362.996979 
	C434.163025,363.001709 430.263580,363.240173 426.583038,364.104889 
	C416.454773,366.484589 409.020966,375.308380 408.982666,385.681702 
	C408.797455,435.824860 408.847595,485.968903 408.825195,536.112610 
	C408.825043,536.434509 408.978027,536.756470 409.197266,537.622864 
	C448.266602,537.622864 487.475159,537.622864 527.571533,537.622864 
	C526.521851,539.280945 526.060608,540.224854 525.407837,541.009338 
	C509.006927,560.720642 492.638763,580.460022 476.069611,600.029053 
	C474.719574,601.623535 471.978851,602.855652 469.873657,602.871887 
	C443.220367,603.077576 416.559845,603.327515 389.913940,602.851135 
	C382.579071,602.719910 375.286438,600.226135 367.443848,598.391296 
	C362.629120,594.839539 357.900665,592.167969 354.144165,588.500793 
	C342.966217,577.588562 340.661346,563.745300 340.757263,548.649048 
	C341.101013,494.544434 340.918762,440.436127 340.832764,386.329407 
	C340.812103,373.339172 340.637634,360.373474 344.668823,347.804810 
z"/>
<path fill="#FEFEFE" opacity="1.000000" stroke="none" 
	d="
M552.000000,485.035095 
	C525.882385,485.035248 500.264801,485.035248 474.334961,485.035248 
	C474.334961,463.212524 474.334961,441.950012 474.334961,420.349548 
	C475.317688,420.222992 476.411011,419.958954 477.504333,419.959015 
	C538.996582,419.962646 600.488953,419.938568 661.981018,420.053131 
	C674.524292,420.076508 685.403076,424.630341 694.259644,433.623749 
	C703.244019,442.746857 707.441711,453.759186 707.402405,466.572083 
	C707.304321,498.567719 707.393188,530.563843 707.347168,562.559692 
	C707.316467,583.885559 707.248596,605.211731 707.081238,626.536926 
	C706.777100,665.287170 680.748352,698.425537 643.233826,707.935669 
	C642.120972,708.217834 640.969421,708.347595 639.270020,708.648560 
	C639.270020,634.130127 639.270020,559.919189 639.270020,485.034912 
	C609.996887,485.034912 581.248413,485.034912 552.000000,485.035095 
z"/>
<path fill="#FEFEFE" opacity="1.000000" stroke="none" 
	d="
M490.000000,727.137634 
	C468.031494,727.138855 446.562927,727.138855 423.974426,727.138855 
	C425.298004,725.208679 426.052917,723.879395 427.020752,722.729248 
	C468.702148,673.194763 510.420776,623.691589 552.085144,574.142761 
	C560.545959,564.080750 569.012390,554.010254 577.067505,543.626648 
	C580.304749,539.453674 583.579834,536.912048 589.050964,537.850769 
	C591.120850,538.205872 593.302612,537.908386 595.698059,537.908386 
	C595.802063,539.250305 595.940369,540.202454 595.940308,541.154602 
	C595.938293,568.798950 596.003113,596.444031 595.780823,624.086670 
	C595.759277,626.775208 594.586975,629.972351 592.876709,632.051453 
	C568.340515,661.879700 543.549377,691.498230 519.024353,721.335510 
	C515.571228,725.536621 512.099976,727.795288 506.475067,727.227722 
	C501.200684,726.695435 495.828918,727.128296 490.000000,727.137634 
z"/>
<path fill="#717172" opacity="1.000000" stroke="none" 
	d="
M344.355164,347.918640 
	C340.637634,360.373474 340.812103,373.339172 340.832764,386.329407 
	C340.918762,440.436127 341.101013,494.544434 340.757263,548.649048 
	C340.661346,563.745300 342.966217,577.588562 354.144165,588.500793 
	C357.900665,592.167969 362.629120,594.839539 367.100037,598.238525 
	C358.883667,597.471008 353.189026,592.125000 348.155548,586.045959 
	C340.531708,576.838379 337.135773,566.070129 337.151978,554.137451 
	C337.233887,493.832672 337.240295,433.527710 337.371643,373.223083 
	C337.391052,364.310333 338.808105,355.631104 344.355164,347.918640 
z"/>
</svg>