<svg width="500" height="500" viewBox="0 0 100 100" fill="none" xmlns="http://www.w3.org/2000/svg">
  <rect width="100" height="100" fill="white"/>
  
  <path d="M33.02 33.1H61.83V41.05H40.97C40.42 41.05 39.97 41.5 39.97 42.05V57.95C39.97 58.5 40.42 58.95 40.97 58.95H50.56L41.38 68.13L47.04 73.79L61.83 59V71.25H69.78V48.51H46.12L51.78 42.85H61.83V33.1H33.02C32.47 33.1 32.02 33.55 32.02 34.1V65.9C32.02 66.45 32.47 66.9 33.02 66.9H37.8L32.02 72.68V74.85H34.19L40 69.04V74.85H61.83V51.05H53.97L61.83 43.19V33.1H33.02Z" fill="black"/>
  
  <g fill="black">
    <path d="M33 29C30.79 29 29 30.79 29 33V67C29 69.21 30.79 71 33 71H39L33 77H41L47 71H62C64.21 71 66 69.21 66 67V50H69V73H62V71H47.5L41.5 77H33C28.58 77 25 73.42 25 69V31C25 26.58 28.58 23 33 23H62V31H33Z"/>
    <path d="M42 41H62V49H49L69 69V41H77V77H69V60L51 78H40L48 70H42C39.79 70 38 68.21 38 66V45C38 42.79 39.79 41 42 41Z"/>
  </g>
</svg>
