<?xml version="1.0" encoding="UTF-8"?>
<svg id="Layer_1" data-name="Layer 1" xmlns="http://www.w3.org/2000/svg" viewBox="0 0 2598.18 2598.18">
  <defs>
    <style>
      .cls-1 {
        fill: #000;
      }

      .cls-1, .cls-2 {
        stroke-width: 0px;
      }

      .cls-2 {
        fill: #fff;
      }
    </style>
  </defs>
  <rect class="cls-1" width="2598.18" height="2598.18"/>
  <g>
    <path class="cls-2" d="M1035.28,976.05v386.03h301.67l-138.67,165.84h-215.84c-68.14,0-123.37-55.24-123.37-123.37v-460.6c0-105.37,85.42-190.78,190.78-190.78h552v165.77h-509.44c-31.55,0-57.12,25.57-57.12,57.12Z"/>
    <polygon class="cls-2" points="1508.87 1362.08 1508.87 1594.9 1301.42 1842.98 1070.43 1842.98 1333.9 1527.92 1435.39 1406.54 1472.57 1362.08 1508.87 1362.08"/>
    <path class="cls-2" d="M1791.59,1174.65v413.82c0,106.57-76.83,188.16-171.96,207.73h0v-567.84h-420.51v-164.92h481.25c61.43,0,111.22,49.8,111.22,111.22Z"/>
  </g>
</svg>