<?xml version="1.0" encoding="UTF-8"?>
<svg version="1.1" xmlns="http://www.w3.org/2000/svg" width="1024" height="1024">
<path d="M0 0 C337.92 0 675.84 0 1024 0 C1024 337.92 1024 675.84 1024 1024 C686.08 1024 348.16 1024 0 1024 C0 686.08 0 348.16 0 0 Z " fill="#FEFEFE" transform="translate(0,0)"/>
<path d="M0 0 C2.27775054 0.00084742 4.55550189 0.00036888 6.83325195 -0.00132751 C12.98318521 -0.00218439 19.13294111 0.01539143 25.28283334 0.03639436 C31.72233433 0.05521265 38.16183988 0.05691565 44.60136414 0.06047058 C55.39882828 0.06872027 66.19622009 0.08742881 76.99365234 0.11425781 C88.10888346 0.14184754 99.22409696 0.16305698 110.33935547 0.17578125 C111.02593604 0.17656942 111.71251661 0.17735759 112.41990266 0.17816965 C115.86470476 0.18208511 119.30950699 0.18587615 122.7543093 0.18960536 C151.27595582 0.22064236 179.79750021 0.27591339 208.3190918 0.34057617 C208.3190918 21.79057617 208.3190918 43.24057617 208.3190918 65.34057617 C199.02140625 65.35459473 199.02140625 65.35459473 189.53588867 65.36889648 C169.07599668 65.40263543 148.61620542 65.45796573 128.15639496 65.52447891 C115.74936202 65.5642843 103.34239264 65.59666923 90.93530273 65.61157227 C80.12099183 65.62458095 69.30682071 65.65152574 58.49258852 65.69518924 C52.76678186 65.71782148 47.04114772 65.73348578 41.31529236 65.73246002 C35.92425165 65.73171447 30.53359258 65.7496237 25.1426506 65.781744 C23.16580826 65.79025191 21.18892316 65.7919869 19.21207047 65.78637886 C16.50816407 65.77973092 13.80546905 65.79767839 11.10168457 65.82159424 C10.32345195 65.81383382 9.54521934 65.8060734 8.74340391 65.79807782 C1.85991247 65.90550596 -3.18789664 68.24418008 -8.4309082 72.65307617 C-15.19826925 80.73631298 -15.26454154 87.45921986 -15.22680664 97.63916016 C-15.23554853 99.19683359 -15.24603645 100.75449805 -15.25813293 102.31214905 C-15.28593847 106.52654795 -15.28939883 110.74065304 -15.28841305 114.95513034 C-15.29154685 119.36477116 -15.31717477 123.77428058 -15.34039307 128.18385315 C-15.38092087 136.52762021 -15.4012862 144.87130917 -15.41436696 153.21515948 C-15.43321903 164.49469269 -15.48329967 175.77408475 -15.53161049 187.05352306 C-15.6068666 204.81586676 -15.64046987 222.57804006 -15.6809082 240.34057617 C23.2590918 240.34057617 62.1990918 240.34057617 102.3190918 240.34057617 C100.78032667 243.41810643 99.74690843 245.20123601 97.5612793 247.66088867 C97.02229004 248.27335449 96.48330078 248.88582031 95.92797852 249.5168457 C95.06970459 250.48146729 95.06970459 250.48146729 94.1940918 251.46557617 C89.77901682 256.4894604 85.48093873 261.56118407 81.3425293 266.81713867 C78.89107756 269.87435454 76.3600571 272.85770386 73.8190918 275.84057617 C69.89799608 280.44732797 66.06401646 285.10885294 62.3034668 289.84838867 C60.03659027 292.69537139 57.74420029 295.52037946 55.4440918 298.34057617 C54.70416992 299.24807617 53.96424805 300.15557617 53.2019043 301.09057617 C51.3190918 303.34057617 51.3190918 303.34057617 49.3190918 305.34057617 C46.45131208 305.55518485 43.67897841 305.64469423 40.80883789 305.64697266 C39.92716446 305.65529617 39.04549103 305.66361969 38.13710022 305.67219543 C35.20553212 305.69639371 32.27418689 305.70508555 29.3425293 305.71166992 C27.29863418 305.72063868 25.25473973 305.72976057 23.21084595 305.73902893 C18.91162524 305.75555492 14.61248264 305.76322387 10.31323242 305.76611328 C4.84405136 305.77145812 -0.62437728 305.80895961 -6.09334755 305.85485744 C-10.32486522 305.8848532 -14.55620807 305.89184191 -18.78782272 305.89283943 C-20.80096201 305.89700807 -22.81410347 305.90930497 -24.82713699 305.93035698 C-39.61233107 306.07248228 -55.00514633 305.619307 -66.72387695 295.28979492 C-72.55311199 289.48383029 -77.59281856 284.05399832 -80.6809082 276.34057617 C-81.18647845 275.1522991 -81.6920487 273.96402203 -82.21293926 272.73973656 C-83.85619468 268.32402661 -84.10051014 264.41447225 -84.05513 259.73916626 C-84.05910441 258.91042539 -84.06307882 258.08168452 -84.06717366 257.22783029 C-84.0767436 254.47047483 -84.06501076 251.71363931 -84.05322266 248.95629883 C-84.05565241 246.97136749 -84.05937351 244.98643737 -84.06428528 243.00151062 C-84.07367396 237.62331963 -84.06428509 232.24531128 -84.05095315 226.86713457 C-84.03961476 221.23038242 -84.04374809 215.59363895 -84.04570007 209.95687866 C-84.04658244 200.48969551 -84.03551588 191.02258404 -84.01708984 181.55541992 C-83.99593537 170.6241139 -83.99241013 159.69291295 -83.9986518 148.7615906 C-84.00435577 138.23130895 -83.99868683 127.70106415 -83.98747826 117.17078781 C-83.98284471 112.69656057 -83.98195304 108.22235596 -83.9840641 103.74812698 C-83.98595416 98.47364083 -83.97778805 93.1992609 -83.96200371 87.92479897 C-83.95777762 85.99392829 -83.95689897 84.06304681 -83.95969391 82.13217354 C-83.98227763 63.73269468 -83.98227763 63.73269468 -81.6809082 55.34057617 C-81.48967534 54.52422007 -81.29844248 53.70786396 -81.10141468 52.86676979 C-76.96066838 35.5889909 -63.60616972 19.60159858 -48.93676758 10.22583008 C-32.98685377 0.52254119 -18.22280729 -0.09532452 0 0 Z " fill="#010000" transform="translate(423.680908203125,296.659423828125)"/>
<path d="M0 0 C25.21759771 -0.09038565 50.43506373 -0.16403176 75.65278244 -0.20724869 C87.36249349 -0.22785075 99.07209655 -0.25592635 110.78173828 -0.30175781 C120.99099688 -0.34169765 131.20017725 -0.36744993 141.4095118 -0.37635398 C146.81245121 -0.3815566 152.21516685 -0.39373561 157.61803436 -0.42292023 C162.71024783 -0.45020223 167.80214673 -0.45841923 172.89442635 -0.45243073 C174.75674464 -0.45352526 176.61907418 -0.46140255 178.48132896 -0.4768219 C194.91242857 -0.60612197 208.75767582 2.11790431 221.25 13.6875 C228.82664898 21.67825733 233.32507672 31.6241173 233.25396729 42.62612915 C233.25864726 43.74817924 233.25864726 43.74817924 233.26342177 44.89289701 C233.27137254 47.38912837 233.26508943 49.88511466 233.25878906 52.38134766 C233.26150036 54.17554873 233.26506207 55.96974868 233.26940918 57.76394653 C233.27852285 62.63203809 233.27499207 67.50004481 233.26865101 72.36813784 C233.26358106 77.47145088 233.26828567 82.57475674 233.27142334 87.67807007 C233.27506206 96.25430603 233.27026841 104.83050755 233.26074219 113.40673828 C233.24987864 123.30072541 233.25336831 133.19462997 233.264395 143.08861506 C233.27349544 151.59671596 233.27473907 160.10479212 233.26951766 168.61289632 C233.26641041 173.68813832 233.26595382 178.76334163 233.27259064 183.83858109 C233.27840288 188.61729379 233.27429674 193.39590109 233.26280212 198.17460251 C233.26017527 199.92080257 233.26088651 201.66701162 233.26532745 203.41320801 C233.3230612 228.43782621 233.3230612 228.43782621 228 235 C227.20516197 236.85643678 226.45852476 238.73393743 225.75 240.625 C217.46874839 260.93378372 199.65520512 276.1864188 179.90625 284.8359375 C169.96814767 289 169.96814767 289 165 289 C165 215.08 165 141.16 165 65 C110.55 65 56.1 65 0 65 C0 43.55 0 22.1 0 0 Z " fill="#010101" transform="translate(473,419)"/>
<path d="M0 0 C0.70020264 0.01494507 1.40040527 0.02989014 2.12182617 0.04528809 C3.84464229 0.08420934 5.56697389 0.14361946 7.2890625 0.20703125 C7.54493687 11.846915 7.73988544 23.48612035 7.85899639 35.12825298 C7.91619164 40.5354934 7.99364735 45.94079765 8.11889648 51.34692383 C8.23920784 56.57316144 8.30434975 61.79754802 8.33271217 67.02506447 C8.35289891 69.01024305 8.39232073 70.99533033 8.45209312 72.97971153 C8.74286709 83.04148242 8.91676149 90.98656861 1.92895508 98.79052734 C0.10416815 100.6714533 -1.7790462 102.43137018 -3.7109375 104.20703125 C-4.8350478 105.46949976 -5.94616379 106.74421155 -7.0234375 108.046875 C-7.47259521 108.56435303 -7.92175293 109.08183105 -8.38452148 109.61499023 C-12.78296265 114.68700089 -17.03902459 119.83560596 -21.1484375 125.14453125 C-25.58131935 130.87134409 -30.24127563 136.35964347 -35.01098633 141.80786133 C-38.93048031 146.28836831 -42.73089122 150.84915473 -46.4765625 155.4765625 C-48.97252777 158.52670187 -51.52649041 161.52274436 -54.0859375 164.51953125 C-63.84690488 175.33653562 -63.84690488 175.33653562 -71.81208801 187.36590576 C-74.33929754 189.81628949 -76.44283074 189.68030944 -79.85917664 189.70471191 C-81.1193737 189.68314026 -81.1193737 189.68314026 -82.4050293 189.66113281 C-83.7370488 189.66200897 -83.7370488 189.66200897 -85.09597778 189.66290283 C-88.03443339 189.66011362 -90.97187762 189.62898214 -93.91015625 189.59765625 C-95.9461054 189.59019684 -97.98206173 189.58450249 -100.01802063 189.58050537 C-105.37923979 189.56522547 -110.74002617 189.52592318 -116.10107422 189.48168945 C-121.57057846 189.44078764 -127.04015256 189.42250523 -132.50976562 189.40234375 C-143.24367984 189.35943136 -153.97727269 189.2911514 -164.7109375 189.20703125 C-160.35300924 182.6190973 -160.35300924 182.6190973 -157.86328125 179.796875 C-157.34628662 179.20640381 -156.82929199 178.61593262 -156.29663086 178.00756836 C-155.48077515 177.08536499 -155.48077515 177.08536499 -154.6484375 176.14453125 C-153.48113178 174.81175736 -152.31447562 173.4784143 -151.1484375 172.14453125 C-150.56835938 171.48195313 -149.98828125 170.819375 -149.390625 170.13671875 C-146.94768194 167.33017487 -144.54486105 164.4908059 -142.1484375 161.64453125 C-138.32029199 157.10092288 -134.46200718 152.5848149 -130.5859375 148.08203125 C-127.02310285 143.94252986 -123.51879773 139.76830016 -120.0859375 135.51953125 C-117.0710288 131.80259507 -113.9501053 128.23024915 -110.7109375 124.70703125 C-105.81613318 119.38099997 -101.24509673 113.84062379 -96.7109375 108.20703125 C-92.03716427 102.4508222 -87.32571538 96.73156567 -82.5234375 91.08203125 C-74.22499983 81.31672791 -66.11843866 71.39114716 -58.0234375 61.45703125 C-54.84309341 57.55949311 -51.60081915 53.7209657 -48.3359375 49.89453125 C-44.4658022 45.35780866 -40.7396536 40.73198008 -37.0859375 36.01953125 C-33.21584861 31.03259853 -29.17327139 26.29356763 -24.90234375 21.640625 C-22.53438486 19.01096656 -20.26993772 16.31608578 -18.0234375 13.58203125 C-17.26933594 12.67582031 -16.51523437 11.76960937 -15.73828125 10.8359375 C-13.69149003 8.31776903 -13.69149003 8.31776903 -12.33984375 5.734375 C-9.17492956 0.14401255 -6.19190004 -0.25010078 0 0 Z " fill="#010101" transform="translate(587.7109375,536.79296875)"/>
<path d="M0 0 C0.625 1.75 0.625 1.75 1 4 C0.33333333 5.33333333 -0.33333333 6.66666667 -1 8 C-1.86473266 13.55874708 -2.15020964 18.96348788 -2.15390015 24.58122253 C-2.1582824 25.40784671 -2.16266465 26.23447088 -2.1671797 27.08614427 C-2.18045814 29.83632197 -2.18672162 32.58646773 -2.19287109 35.33666992 C-2.20078054 37.3167332 -2.20905 39.29679507 -2.21765137 41.27685547 C-2.24376787 47.76137942 -2.25916582 54.24590951 -2.2734375 60.73046875 C-2.27880092 62.96890071 -2.28417843 65.20733264 -2.28956985 67.44576454 C-2.31118083 76.75958161 -2.32991625 86.07339702 -2.34119225 95.38723278 C-2.35742706 108.70576875 -2.39061433 122.02401288 -2.44759309 135.34243888 C-2.48635516 144.72446668 -2.5058322 154.1064166 -2.51111281 163.48852235 C-2.5147568 169.08423429 -2.52667771 174.6796342 -2.55921555 180.27525902 C-2.58940753 185.5424677 -2.59556833 190.80917728 -2.58383179 196.07645416 C-2.583612 198.00125049 -2.59183747 199.92607077 -2.60948563 201.85078621 C-2.7413224 217.06625292 -0.97047921 229.44598466 10 241 C11.75858288 242.6464099 13.54023505 244.20738409 15.421875 245.7109375 C17.05916737 247.04832978 18.52833522 248.48400797 20 250 C13.126918 249.02329887 8.45890652 244.88505167 4.0390625 239.69921875 C-3.79471221 228.97481538 -7.15050548 219.06879225 -7.14717102 205.80477905 C-7.15084771 205.00759417 -7.1545244 204.21040929 -7.1583125 203.38906729 C-7.16927696 200.73251604 -7.17318079 198.076004 -7.17700195 195.41943359 C-7.18327205 193.50848265 -7.18991933 191.5975329 -7.19691467 189.68658447 C-7.2178917 183.42387735 -7.22831082 177.16117015 -7.23828125 170.8984375 C-7.24233112 168.73708712 -7.24644811 166.57573687 -7.25063133 164.41438675 C-7.26966869 154.25839008 -7.28390302 144.10240062 -7.2922433 133.94638956 C-7.30201183 122.24643949 -7.32832757 110.5466788 -7.36874419 98.84679544 C-7.3989589 89.78750114 -7.41371723 80.72826098 -7.41702431 71.6689173 C-7.41936854 66.26550414 -7.42824748 60.86229363 -7.45348549 55.45893478 C-7.47686523 50.37153463 -7.48095977 45.28446918 -7.47072411 40.19702911 C-7.47023105 38.3383561 -7.47648296 36.47966603 -7.49028015 34.62104416 C-7.57794927 22.10259196 -6.92399808 10.90414247 0 0 Z " fill="#ACABA8" transform="translate(343,346)"/>
<path d="M0 0 C0.625 1.75 0.625 1.75 1 4 C0.33333333 5.33333333 -0.33333333 6.66666667 -1 8 C-1.85240567 13.4990912 -2.15086658 18.84593515 -2.15821838 24.4029541 C-2.16315636 25.21016576 -2.16809434 26.01737742 -2.17318195 26.84905005 C-2.18844478 29.53282832 -2.19688689 32.21658288 -2.20532227 34.90039062 C-2.21490963 36.83258266 -2.2249202 38.76477263 -2.23532104 40.69696045 C-2.26228323 45.92771163 -2.28333966 51.15847175 -2.30332303 56.38925362 C-2.32523635 61.86120343 -2.35259882 67.33312595 -2.37937927 72.80505371 C-2.42923401 83.16040117 -2.47419955 93.51576384 -2.51740164 103.87114096 C-2.5668358 115.66313951 -2.62173097 127.45511067 -2.67708123 139.24708271 C-2.79079042 163.49802957 -2.89765344 187.74900272 -3 212 C-3.33 212 -3.66 212 -4 212 C-4.33 186.59 -4.66 161.18 -5 135 C-5.33 135 -5.66 135 -6 135 C-6.07023551 119.5266868 -6.12305919 104.05338561 -6.15543652 88.57995033 C-6.17087279 81.39455444 -6.1918999 74.20925789 -6.22631836 67.02392578 C-6.25632043 60.75756299 -6.27559852 54.49127219 -6.28226548 48.22483957 C-6.28615957 44.91006117 -6.29684238 41.59553534 -6.31719017 38.28081131 C-6.33905363 34.57071108 -6.34196312 30.86103348 -6.34057617 27.15087891 C-6.351362 26.06474304 -6.36214783 24.97860718 -6.3732605 23.85955811 C-6.33850409 15.23411279 -5.04619717 7.20885311 0 0 Z " fill="#80807F" transform="translate(343,346)"/>
<path d="M0 0 C3.78583594 0.55649259 5.37801976 2.10772038 7.9375 4.875 C10.76133252 7.82023092 13.30982705 10.15491353 17 12 C15.31640625 12.7265625 15.31640625 12.7265625 13 13 C10.52734375 11.5234375 10.52734375 11.5234375 7.9375 9.375 C7.08027344 8.68148437 6.22304688 7.98796875 5.33984375 7.2734375 C3.00525199 5.00510294 1.52921883 2.85788437 0 0 Z " fill="#979796" transform="translate(346,583)"/>
<path d="M0 0 C2.10762603 2.10762603 2.84505738 3.65908025 4 6.375 C5.25192661 9.29942231 6.55131355 12.1673006 8 15 C5.44837577 14.62299342 4.26119096 14.28133423 2.48046875 12.36328125 C-1.04161901 6.77688827 -1.04161901 6.77688827 -0.8125 2.5 C-0.544375 1.675 -0.27625 0.85 0 0 Z " fill="#868686" transform="translate(341,568)"/>
<path d="M0 0 C0.33 0.66 0.66 1.32 1 2 C1.99 2 2.98 2 4 2 C4 3.65 4 5.3 4 7 C3.01 7.495 3.01 7.495 2 8 C0.23537317 4.91190305 0 3.76687864 0 0 Z " fill="#A3A2A2" transform="translate(337,563)"/>
</svg>
